<svg width="41" height="53" viewBox="0 0 41 53" fill="none" xmlns="http://www.w3.org/2000/svg">
<path fill-rule="evenodd" clip-rule="evenodd" d="M13.3107 29.2223C12.0685 29.8028 10.6675 29.9135 9.13682 29.3604C4.40187 27.6491 2.68584 23.7511 2.70092 19.2578C2.72317 12.6969 6.49159 4.85548 9.66136 1.03895C9.81128 0.858013 10.0794 0.833833 10.2593 0.983683C10.4402 1.1336 10.4654 1.40175 10.3155 1.58269C7.23868 5.28677 3.57302 12.8938 3.55098 19.2612C3.53726 23.387 5.07712 26.9891 9.42629 28.5603C10.7204 29.0289 11.9024 28.9315 12.9539 28.4433C12.6455 27.7513 12.3606 27.0596 12.1004 26.3694C11.3827 24.4641 10.4575 19.2405 11.1576 15.4853C11.6606 12.7917 12.9968 10.855 15.6393 11.0904C17.1081 11.2215 18.1154 12.2043 18.6757 13.7032C19.4472 15.7634 19.3568 18.8407 18.5431 21.7439C17.866 24.1612 16.6915 26.454 15.1347 27.9448C14.7919 28.2717 14.432 28.5622 14.0545 28.8074C18.5145 38.3248 27.328 47.5132 36.7027 51.7403C36.916 51.8374 37.0121 52.0885 36.915 52.3028C36.8189 52.5172 36.5668 52.6122 36.3535 52.5162C26.8262 48.2194 17.8653 38.896 13.3107 29.2223ZM13.696 28.0208C13.4076 27.3698 13.1407 26.719 12.8962 26.0696C12.209 24.2435 11.3228 19.2395 11.9938 15.6416C12.4053 13.4335 13.3983 11.7443 15.5641 11.937C16.7014 12.039 17.4448 12.8409 17.88 14.0009C18.3574 15.2775 18.4648 16.9729 18.2643 18.7609C17.96 21.4754 16.9427 24.4026 15.3639 26.4208C14.8641 27.0605 14.3065 27.6074 13.696 28.0208Z" fill="#2B2B2B"/>
<path fill-rule="evenodd" clip-rule="evenodd" d="M29.9805 37.3786C30.5246 42.4216 33.4556 47.9376 36.7421 51.8355C36.8932 52.0147 36.8701 52.2831 36.6909 52.4342C36.5116 52.5854 36.2432 52.5633 36.092 52.3841C32.7024 48.3648 29.6965 42.6689 29.1353 37.4701C29.11 37.2374 29.2789 37.0276 29.5127 37.0023C29.7454 36.977 29.9552 37.146 29.9805 37.3786Z" fill="#2B2B2B"/>
<path fill-rule="evenodd" clip-rule="evenodd" d="M36.0317 52.4702C32.5018 50.1524 26.9058 49.5141 22.7474 50.3185C22.5167 50.3632 22.2928 50.2128 22.2491 49.9822C22.2044 49.7515 22.3547 49.5287 22.5854 49.4839C26.9418 48.6413 32.8001 49.3314 36.4983 51.7597C36.6946 51.888 36.7491 52.1526 36.6208 52.3489C36.4914 52.545 36.2279 52.5996 36.0317 52.4702Z" fill="black"/>
</svg>
